<svg width="9127" height="9127" viewBox="0 0 9127 9127" fill="none" xmlns="http://www.w3.org/2000/svg">
<path fill-rule="evenodd" clip-rule="evenodd" d="M9127 4446.09C9127 6901.15 7121.07 8891.86 4646.65 8891.86C3860.84 8891.86 3122.56 8691.18 2480.75 8338.66L0 9127L808.622 6741.82C400.571 6071.74 165.938 5285.92 165.938 4446.14C165.938 1990.57 2171.82 7.93433e-07 4646.65 7.93433e-07C7121.07 -0.0458891 9127 1990.52 9127 4446.09ZM4646.65 708.081C2569 708.081 879.476 2384.67 879.476 4446.09C879.476 5263.57 1145.82 6021.26 1596.96 6637.7L1126.55 8025.64L2573.91 7565.73C3168.54 7955.89 3881.07 8183.69 4646.61 8183.69C6723.39 8183.69 8413.37 6506.96 8413.37 4446.04C8413.42 2384.67 6723.44 708.081 4646.65 708.081Z" fill="#3B8BFF"/>
<mask id="mask0_5_358" style="mask-type:alpha" maskUnits="userSpaceOnUse" x="1654" y="1412" width="6043" height="6042">
<circle cx="4675.69" cy="4432.93" r="3020.67" transform="rotate(-4.46473 4675.69 4432.93)" fill="#D9D9D9"/>
</mask>
<g mask="url(#mask0_5_358)">
<path d="M7174.63 7492.39C7288.28 7671.99 7529.31 7813.17 7529.31 7813.17L7000.88 7854.43C6672.49 7777.12 6403.27 7640.4 6183.69 7465.65C5050.68 6565.19 5223.25 4654.78 5223.25 4654.78C5227.91 5337.96 5483.83 6294.11 6826.93 6494.13C6897.35 6535.64 7055.2 6637.42 7123.43 6679.1L6938.95 6702.93L7265.83 6947.65L7024.1 6948.04L7421.46 7271.06L7110.26 7227.17L7509.03 7553.51C7252.28 7512.1 7182.59 7494.04 7174.63 7492.39Z" fill="#FEA32E"/>
<path d="M7000.88 7854.43L5624.23 7961.92C5624.23 7961.92 4408.01 6656.13 4827.46 5104.66C4785.63 5650.45 4925.17 6628.11 6183.7 7465.7C6403.28 7640.39 6672.49 7777.11 7000.88 7854.43Z" fill="#FCC320"/>
<path d="M6754.61 6298.89C6855.04 6410.28 7046.25 6429.45 7175.91 6490.94C7082.21 6502.66 6954.1 6516.65 6859.21 6498.96C6858.11 6499.05 6857.56 6499.09 6856.42 6498.57C6842.83 6496.2 6829.64 6492.82 6817.56 6488.68C6820.49 6490.11 6823.46 6492.14 6826.93 6494.13C5483.83 6294.18 5227.9 5337.96 5223.24 4654.78C5220.75 4264.45 5300.2 3962.9 5305.78 3941.78C5306.28 3941.12 5306.24 3940.64 5306.24 3940.64C5403.2 3669.55 5418.13 3488.24 5418.13 3488.24C5418.13 3488.24 5659.23 3838.09 5664.33 4247.75C5669.47 4657.89 5734.36 5324.19 6317.28 5586.32C6318.8 5713.21 6530.61 5895.8 6655.17 5928C6607.51 5949.04 6542.62 5927.3 6488.36 5934.35C6565.04 6006.65 6609.41 6101.13 6705.03 6157.99C6773.11 6198.59 6873.51 6201.34 6928.99 6252.4C6883.2 6297.29 6817.86 6291.81 6754.61 6298.89Z" fill="#FC7A22"/>
<path d="M6317.28 5586.32C5734.35 5324.19 5669.47 4657.89 5664.32 4247.75C5659.22 3838.16 5418.13 3488.24 5418.13 3488.24C5418.13 3488.24 5486.54 3311.14 5431.56 3208.62C5386.49 3125.41 5377.99 3109.85 5376.03 3106.7L5375.98 3106.09L5352.42 2846.68C5352.42 2846.68 5354.15 2847.77 5357.1 2850.23C5409.74 2893.07 5872.12 3296.71 5861.21 4339.68L5860.12 4339.77C5926.65 5306.3 6325.83 5408.81 6325.83 5408.81C6325.21 5422.88 6327.45 5436.66 6331.74 5449.18C6356.99 5521.64 6456.18 5573.21 6512.82 5617.94C6446.05 5615.99 6387.22 5578.6 6317.28 5586.32Z" fill="#FEA32E"/>
<path d="M6325.84 5408.87C6325.84 5408.87 5926.66 5306.35 5860.13 4339.82L5861.23 4339.73C5872.14 3296.82 5409.7 2893.12 5357.12 2850.28C5418.01 2891.37 6047.75 3331.1 6122.23 3812.03C6199.77 4317.34 6270.6 4981.33 6892.08 5257.29C6892.08 5257.29 6766.67 5593.7 6337.27 5447.7L6331.75 5449.17C6327.47 5436.71 6325.22 5422.87 6325.84 5408.87Z" fill="#FCC320"/>
<path d="M5331.3 3236.64C5312.03 3147.55 5376.02 3106.75 5376.02 3106.75C5377.99 3109.96 5386.48 3125.46 5431.56 3208.67C5486.59 3311.19 5418.12 3488.3 5418.12 3488.3C5418.12 3488.3 5424.1 3429.13 5353.99 3297.55C5342.17 3275.52 5335.02 3255.39 5331.34 3237.19C5330.81 3236.68 5331.3 3236.64 5331.3 3236.64Z" fill="#FF321D"/>
<path d="M5149.84 2309.32C5232.48 2529.35 5313.78 2545.47 5352.43 2846.73L5375.99 3106.14L5376.04 3106.75C5376.04 3106.75 5312.11 3147.55 5331.31 3236.64C5331.31 3236.64 5330.82 3236.68 5331.35 3237.19C5312.74 3349.44 5273.81 3467.19 5218.27 3587.27C4702.76 4339.05 3546.84 4715.22 3516.24 4724.83C3517.79 4723.55 3518.85 4722.98 3520.52 4721.62C3572.67 4686.82 4048.76 4362.69 4459.29 3872.47C4903.61 3342.15 5271.23 2616.98 4942.36 1852.79C4951.8 1866.13 5028.83 1985.36 5149.84 2309.32Z" fill="#5A34E5"/>
<path d="M4909.07 4680.41C5108.92 4408.64 5231.32 4148.97 5305.84 3941.83C5300.2 3962.96 5220.81 4264.5 5223.3 4654.84C5223.3 4654.84 5050.67 6565.25 6183.74 7465.71C4925.27 6628.11 4785.68 5650.51 4827.5 5104.67C4845.73 4864.4 4899.53 4707.97 4908.15 4682.69C4908.55 4681.56 4909.11 4680.9 4909.07 4680.41Z" fill="#D12060"/>
<path d="M4942.35 1852.79C5271.21 2616.98 4903.59 3342.15 4459.27 3872.47C5256.49 2750.72 4419.49 1800.7 4419.49 1800.7C4485.74 1753.54 4526.65 1711.29 4582.32 1678.42C4674.39 1624.71 4840.62 1531.85 4941.61 1851.2C4941.61 1851.2 4941.66 1851.81 4942.35 1852.79Z" fill="#39C2FF"/>
<path d="M4751.45 4877.27C4808 4812.5 4859.94 4746.87 4908.09 4682.7C4899.41 4707.98 4845.61 4864.41 4827.44 5104.68C4407.99 6656.14 5624.21 7961.93 5624.21 7961.93L4996.2 8010.97C3594.16 7248.31 4117.53 5895.19 4133.81 5853.58C4133.76 5852.92 4133.76 5852.92 4134.27 5852.39C4411.14 5306 4732.67 4901.08 4750.5 4878.45C4751.01 4877.92 4751.45 4877.27 4751.45 4877.27Z" fill="#FF601A"/>
<path d="M4996.15 8010.97L3980.55 8090.27C3511.42 7437.11 3788.06 6535.6 4133.82 5853.58C4117.47 5895.13 3594.11 7248.31 4996.15 8010.97Z" fill="#FF321D"/>
<path d="M4419.52 1800.76C4419.52 1800.76 5256.52 2750.78 4459.31 3872.53C4048.78 4362.75 3572.69 4686.88 3520.54 4721.68C4719.52 3865.68 4104.4 2072.11 4104.4 2072.11C4120.44 2005.48 4159.05 1933.67 4246.8 1896.02C4322.6 1863.72 4376.06 1831.58 4419.52 1800.76Z" fill="#3B8BFF"/>
<path d="M4365.66 5253.66C4513.87 5130.81 4641.12 5004.45 4750.5 4878.44C4732.68 4901.07 4411.2 5305.99 4134.27 5852.38C4133.76 5852.91 4133.76 5852.91 4133.82 5853.58C3788.05 6535.6 3511.42 7437.11 3980.54 8090.27L3356.43 8139C2915.3 7348.81 3263.48 6626.32 3411.12 6381.58C3411.07 6380.97 3411.62 6380.93 3411.62 6380.93C3430.02 6351.58 3449.62 6322.62 3468.57 6293.11C3720.54 5914.92 4023.04 5538.3 4365.66 5253.66Z" fill="#D12060"/>
<path d="M4097 2221.55C4097 2221.55 4085.25 2150.24 4104.37 2072.05C4104.37 2072.05 4719.55 3865.61 3520.51 4721.62C3518.9 4722.97 3517.85 4723.55 3516.23 4724.83C3385.28 4817.82 3232.7 4899.7 3055.57 4966.66C3055.57 4966.66 4243.6 4349.19 4021.67 2704.51C4021.67 2704.51 4153.59 2494.54 4097 2221.55Z" fill="#39C2FF"/>
<path d="M3393.41 4348.43C3466.45 4287.94 3787.89 3967.99 3525.02 3203.66L3422.89 2862.61C3422.89 2862.61 3314.99 2706.5 3478.94 2569.56C3561.42 2500.5 3623.16 2445.79 3672.53 2418.49C3621.87 2450.42 3489.15 2578.8 3733.78 2973.12C4027.03 3445.85 3748.08 4238.53 3451.45 4338.87C3433.37 4344.26 3413.38 4346.25 3393.41 4348.43Z" fill="#5A34E5"/>
<path d="M3411.64 6380.99C3445.28 6324.06 3468.59 6293.17 3468.59 6293.17C3449.64 6322.62 3430.04 6351.58 3411.64 6380.99Z" fill="#FEA32E"/>
<path d="M3689.8 2409.86C3729.82 2392.22 3761.42 2395.33 3789.72 2428.38C3789.72 2428.38 3891.97 2383.48 3958.21 2385.65C3958.21 2385.65 3863.01 2463.54 3865 2503.11L4021.75 2704.56C4243.62 4349.18 3055.65 4966.71 3055.65 4966.71C3005.14 4972.3 2936.41 4966.53 2905.7 4967.7C3109.68 4906.54 3148.88 4684.71 3292.55 4575.07C3256.36 4577.34 3220.2 4580.16 3184.92 4580.04C3282.71 4499.2 3366.79 4429.4 3451.51 4338.86C3748.15 4238.52 4027.09 3445.84 3733.85 2973.11C3489.22 2578.79 3621.94 2450.41 3672.6 2418.48C3677.92 2415.25 3682.29 2413.26 3684.94 2411.89C3688.15 2410.6 3689.8 2409.86 3689.8 2409.86Z" fill="#3B8BFF"/>
<path d="M2936.57 5879.92C3001.28 5820.02 3030.61 5743.91 3045.58 5662.8C2999.84 5679.29 2944.92 5677.88 2896.18 5677.83C2980.97 5624.2 3016.98 5505.09 3053.91 5418.83C3014.86 5463.87 2925.64 5474.76 2867.53 5468.58C2933.98 5417 2988.56 5327.77 3037.17 5261.79C3001.62 5265.18 2959.26 5281.89 2927.58 5298.93C2923.6 5262.88 2943.02 5232.29 2945.16 5194.6C2873.81 5233.72 2805.79 5251.94 2743.58 5307.67C2804.43 5155.27 2937.59 5082.81 3055.53 4966.72C3232.72 4899.76 3385.24 4817.88 3516.19 4724.9C3546.79 4715.29 4702.72 4339.11 5218.23 3587.34C4740.59 4630.46 3054.8 5882.01 3054.8 5882.01C3063.45 5871.24 3072.34 5862.77 3081.25 5855.34C3038.2 5876.45 2989.47 5875.79 2936.57 5879.92Z" fill="#3B8BFF"/>
<path d="M2654.6 7844.72C2677.93 7778.01 2953.87 7090.3 3411.14 6381.58C3263.44 6626.33 2915.32 7348.81 3356.45 8139L2856.92 8178.01L2868.89 8001.95C2818.69 8032.68 2748.08 8103.14 2717.63 8150.81C2740.27 7967.86 2791.39 7784.21 2885.21 7616.39C2824.47 7691.03 2733.46 7786.53 2654.6 7844.72Z" fill="#FF321D"/>
<path d="M3411.12 6381.58C2953.78 7090.24 2677.91 7778.01 2654.58 7844.71C2637.22 7686.67 2741.62 7525.8 2780.93 7376.74C2739.05 7407.43 2715.25 7438.98 2662.43 7450.33C2683.75 7379.86 2742.39 7263.45 2722.91 7192.8C2675.08 7232.83 2619.12 7275.28 2570.69 7315.36C2585.93 7194.5 2672.78 7002.56 2740.5 6894.98C2689.95 6913.44 2606.5 6898.71 2561.54 6889.92C2609.7 6854.27 2664.86 6829.76 2710.89 6788.71C2740.73 6762.32 2768.86 6720.95 2810.34 6714.95C2746.02 6715.51 2719.9 6752.74 2672.95 6782.73C2627.61 6811.43 2576.29 6813.78 2521.27 6818.08C2558.92 6798.37 2598.69 6798.69 2630.33 6767.15C2655.16 6741.64 2653.17 6708.25 2669.87 6679.04C2694.9 6633.32 2748.24 6585.57 2798.4 6554.23C2809.13 6548.98 2819.92 6543.61 2829.49 6536.74C2819.8 6541.36 2809.04 6547.77 2798.4 6554.23C2769.24 6568.2 2737.04 6578.61 2707.49 6593.77C2715.5 6517.61 2845.37 6367.6 2921.42 6337.73C2856.32 6357.26 2798 6383.66 2743.45 6423.79C2776.8 6356.8 2792.45 6298.52 2852.54 6244.62C2908.51 6194.4 2965.28 6139.59 3028.06 6098.94C2997.52 6108.55 2968.92 6114.76 2936.27 6120.13C2968.67 6083.38 3003.74 6045.45 3041.53 6013.42C3013.19 6022.92 2981.35 6023.75 2951.38 6026.64C2986.29 5985.9 3017.78 5924.07 3054.86 5882.12C3054.86 5882.12 4740.64 4630.57 5218.28 3587.45C5273.81 3467.3 5312.75 3349.55 5331.36 3237.37C5335.05 3255.57 5342.2 3275.7 5354.02 3297.73C5424.12 3429.31 5418.15 3488.48 5418.15 3488.48C5418.15 3488.48 5403.22 3669.79 5306.26 3940.87C5306.26 3940.87 5306.3 3941.36 5305.8 3942.01C5231.28 4149.21 5108.87 4408.82 4909.03 4680.59C4909.07 4681.14 4908.57 4681.79 4908.11 4682.87C4859.96 4747.04 4808.02 4812.68 4751.47 4877.45C4751.47 4877.45 4751.03 4878.09 4750.46 4878.69C4641.14 5004.69 4513.83 5130.99 4365.62 5253.91C4023 5538.54 3720.5 5915.11 3468.59 6293.35C3468.59 6293.35 3445.23 6324.31 3411.64 6381.17C3411.63 6380.99 3411.08 6381.03 3411.12 6381.58Z" fill="#821F8C"/>
</g>
</svg>
